<?xml version="1.0" encoding="UTF-8" standalone="no"?>
<!-- Created with Inkscape (http://www.inkscape.org/) -->

<svg
   width="1440"
   height="720"
   viewBox="0 0 1440 720"
   version="1.1"
   id="svg1"
   inkscape:version="1.4 (86a8ad7, 2024-10-11)"
   sodipodi:docname="SD.svg"
   xmlns:inkscape="http://www.inkscape.org/namespaces/inkscape"
   xmlns:sodipodi="http://sodipodi.sourceforge.net/DTD/sodipodi-0.dtd"
   xmlns:xlink="http://www.w3.org/1999/xlink"
   xmlns="http://www.w3.org/2000/svg"
   xmlns:svg="http://www.w3.org/2000/svg">
  <sodipodi:namedview
     id="namedview1"
     pagecolor="#43245a"
     bordercolor="#000000"
     borderopacity="0.25"
     inkscape:showpageshadow="2"
     inkscape:pageopacity="0.0"
     inkscape:pagecheckerboard="0"
     inkscape:deskcolor="#d1d1d1"
     inkscape:document-units="px"
     inkscape:zoom="0.47208539"
     inkscape:cx="885.43304"
     inkscape:cy="382.34609"
     inkscape:window-width="1366"
     inkscape:window-height="745"
     inkscape:window-x="-8"
     inkscape:window-y="-8"
     inkscape:window-maximized="1"
     inkscape:current-layer="g30">
    <inkscape:page
       x="0"
       y="0"
       width="1440"
       height="720"
       id="page9"
       margin="0"
       bleed="0" />
  </sodipodi:namedview>
  <defs
     id="defs1" />
  <g
     inkscape:label="Layer 1"
     inkscape:groupmode="layer"
     id="layer1"
     transform="translate(-2446)">
    <g
       id="g30"
       transform="translate(-10.852692,14.527128)">
      <g
         id="g11"
         style="font-variation-settings:'wght' 400;vector-effect:none;fill:none;fill-opacity:1;stroke:#ffffff;stroke-width:6;stroke-linecap:round;stroke-linejoin:miter;stroke-miterlimit:4;stroke-dasharray:none;stroke-dashoffset:0;stroke-opacity:1;-inkscape-stroke:none;stop-color:#000000"
         transform="matrix(0.62598728,0,0,0.62598728,2395.1118,56.706838)">
        <rect
           style="font-variation-settings:'wght' 400;vector-effect:none;fill:none;fill-opacity:1;stroke:#ffffff;stroke-width:6;stroke-linecap:round;stroke-linejoin:miter;stroke-miterlimit:4;stroke-dasharray:none;stroke-dashoffset:0;stroke-opacity:1;-inkscape-stroke:none;stop-color:#000000;stop-opacity:1"
           id="rect11"
           width="410.47528"
           height="205.23764"
           x="187.19554"
           y="679.25189"
           ry="102.61882" />
        <path
           id="path11"
           style="font-variation-settings:'wght' 400;opacity:1;vector-effect:none;fill:none;fill-opacity:1;stroke:#ffffff;stroke-width:6;stroke-linecap:round;stroke-linejoin:miter;stroke-miterlimit:4;stroke-dasharray:none;stroke-dashoffset:0;stroke-opacity:1;-inkscape-stroke:none;stop-color:#000000;stop-opacity:1"
           d="m 321.00592,742.82721 -27.00661,38.43582 27.00661,38.43583 m 142.85514,1.21593 27.0066,-38.43582 -27.0066,-38.43728"
           sodipodi:nodetypes="cccccc" />
      </g>
      <g
         id="g13"
         transform="matrix(0,0.62598728,-0.62598728,0,4266.6146,241.31365)"
         style="font-variation-settings:'wght' 400;vector-effect:none;fill:none;fill-opacity:1;stroke:#ffffff;stroke-width:6;stroke-linecap:round;stroke-linejoin:miter;stroke-miterlimit:4;stroke-dasharray:none;stroke-dashoffset:0;stroke-opacity:1;-inkscape-stroke:none;stop-color:#000000">
        <rect
           style="font-variation-settings:'wght' 400;vector-effect:none;fill:none;fill-opacity:1;stroke:#ffffff;stroke-width:6;stroke-linecap:round;stroke-linejoin:miter;stroke-miterlimit:4;stroke-dasharray:none;stroke-dashoffset:0;stroke-opacity:1;-inkscape-stroke:none;stop-color:#000000;stop-opacity:1"
           id="rect13"
           width="410.47528"
           height="205.23764"
           x="187.19554"
           y="679.25189"
           ry="102.61882" />
        <path
           id="path13"
           style="font-variation-settings:'wght' 400;opacity:1;vector-effect:none;fill:none;fill-opacity:1;stroke:#ffffff;stroke-width:6;stroke-linecap:round;stroke-linejoin:miter;stroke-miterlimit:4;stroke-dasharray:none;stroke-dashoffset:0;stroke-opacity:1;-inkscape-stroke:none;stop-color:#000000;stop-opacity:1"
           d="m 321.00592,742.82721 -27.00661,38.43582 27.00661,38.43583 m 142.85514,1.21593 27.0066,-38.43582 -27.0066,-38.43728"
           sodipodi:nodetypes="cccccc" />
      </g>
      <g
         id="g31"
         transform="translate(62.909138,-44.796778)">
        <rect
           style="font-variation-settings:'wght' 400;opacity:1;vector-effect:none;fill:none;fill-opacity:1;stroke:#ffffff;stroke-width:3.72448;stroke-linecap:round;stroke-linejoin:miter;stroke-miterlimit:4;stroke-dasharray:none;stroke-dashoffset:0;stroke-opacity:1;-inkscape-stroke:none;stop-color:#000000;stop-opacity:1"
           id="rect17"
           width="166.27553"
           height="166.27551"
           x="3443.6477"
           y="403.27673"
           ry="41.379574" />
        <path
           style="font-weight:bold;font-size:23.3702px;font-family:'Myanmar Text';-inkscape-font-specification:'Myanmar Text Bold';font-variation-settings:'wght' 400;text-align:center;text-anchor:middle;white-space:pre;fill:#ffffff;stroke-width:2.46472;stroke-linecap:round"
           d="m 3523.15,431.73264 h -2.6359 l -0.7638,-2.38877 h -3.819 l -0.7563,2.38877 h -2.621 l 3.909,-10.7382 h 2.868 z m -3.9538,-4.24586 -1.1532,-3.60935 q -0.1273,-0.40437 -0.1797,-0.96599 h -0.06 q -0.037,0.47176 -0.1872,0.93604 l -1.1681,3.6393 z m 12.8348,-4.52292 h -3.0627 v 8.76878 h -2.4261 v -8.76878 h -3.0478 v -1.96942 h 8.5366 z m 8.986,0 h -3.0627 v 8.76878 h -2.4262 v -8.76878 h -3.0477 v -1.96942 h 8.5366 z"
           id="text19"
           aria-label="ATT" />
        <path
           style="font-weight:bold;font-size:23.3702px;font-family:'Myanmar Text';-inkscape-font-specification:'Myanmar Text Bold';font-variation-settings:'wght' 400;text-align:center;text-anchor:middle;white-space:pre;fill:#ffffff;stroke-width:2.46472;stroke-linecap:round"
           d="m 3523.15,551.81342 h -2.6359 l -0.7638,-2.38876 h -3.819 l -0.7563,2.38876 h -2.621 l 3.909,-10.73818 h 2.868 z m -3.9538,-4.24585 -1.1532,-3.60935 q -0.1273,-0.40436 -0.1797,-0.96599 h -0.06 q -0.037,0.47176 -0.1872,0.93604 l -1.1681,3.6393 z m 12.8348,-4.52292 h -3.0627 v 8.76877 h -2.4261 v -8.76877 h -3.0478 v -1.96941 h 8.5366 z m 8.986,0 h -3.0627 v 8.76877 h -2.4262 v -8.76877 h -3.0477 v -1.96941 h 8.5366 z"
           id="text20"
           aria-label="ATT" />
        <path
           style="font-weight:bold;font-size:23.3702px;font-family:'Myanmar Text';-inkscape-font-specification:'Myanmar Text Bold';font-variation-settings:'wght' 400;text-align:center;text-anchor:middle;white-space:pre;fill:#ffffff;stroke-width:2.46472;stroke-linecap:round"
           d="m 3582.6884,491.78359 h -2.6359 l -0.7638,-2.38877 h -3.8191 l -0.7563,2.38877 h -2.6208 l 3.9088,-10.7382 h 2.868 z m -3.9539,-4.24586 -1.1531,-3.60935 q -0.1274,-0.40437 -0.1798,-0.96599 h -0.06 q -0.037,0.47176 -0.1872,0.93604 l -1.1682,3.6393 z m 12.835,-4.52292 h -3.0627 v 8.76878 h -2.4263 v -8.76878 h -3.0477 v -1.96942 h 8.5367 z m 8.9859,0 h -3.0627 v 8.76878 h -2.4262 v -8.76878 h -3.0478 v -1.96942 h 8.5367 z"
           id="text21"
           aria-label="ATT" />
        <path
           style="font-weight:bold;font-size:23.3702px;font-family:'Myanmar Text';-inkscape-font-specification:'Myanmar Text Bold';font-variation-settings:'wght' 400;text-align:center;text-anchor:middle;white-space:pre;fill:#ffffff;stroke-width:2.46472;stroke-linecap:round"
           d="m 3463.6667,491.78359 h -2.6358 l -0.7639,-2.38877 h -3.819 l -0.7563,2.38877 h -2.6209 l 3.9089,-10.7382 h 2.868 z m -3.9538,-4.24586 -1.1532,-3.60935 q -0.1273,-0.40437 -0.1797,-0.96599 h -0.06 q -0.037,0.47176 -0.1872,0.93604 l -1.1682,3.6393 z m 12.8349,-4.52292 h -3.0627 v 8.76878 h -2.4262 v -8.76878 h -3.0477 v -1.96942 h 8.5366 z m 8.9859,0 h -3.0627 v 8.76878 h -2.4261 v -8.76878 h -3.0478 v -1.96942 h 8.5366 z"
           id="text22"
           aria-label="ATT" />
        <g
           id="g33"
           transform="translate(-0.87786102,-0.42160034)">
          <rect
             style="font-variation-settings:'wght' 400;opacity:1;vector-effect:none;fill:none;fill-opacity:1;stroke:#ffffff;stroke-width:3.75592;stroke-linecap:round;stroke-linejoin:miter;stroke-miterlimit:4;stroke-dasharray:none;stroke-dashoffset:0;stroke-opacity:1;-inkscape-stroke:none;stop-color:#000000;stop-opacity:1"
             id="rect18"
             width="70"
             height="70"
             x="3492.6633"
             y="451.83609"
             ry="17.487862" />
          <path
             style="font-weight:bold;font-size:23.3702px;font-family:'Myanmar Text';-inkscape-font-specification:'Myanmar Text Bold';font-variation-settings:'wght' 400;text-align:center;text-anchor:middle;white-space:pre;fill:#ffffff;stroke-width:2.46472;stroke-linecap:round"
             d="m 3513.0649,492.2015 v -10.7382 h 3.804 q 5.7211,0 5.7211,5.23431 0,2.50857 -1.5651,4.00623 -1.5575,1.49766 -4.156,1.49766 z m 2.4187,-8.76878 v 6.80684 h 1.1981 q 1.5726,0 2.4637,-0.94352 0.8985,-0.94352 0.8985,-2.56847 0,-1.53511 -0.8911,-2.41123 -0.8836,-0.88362 -2.4861,-0.88362 z m 8.3943,8.35692 v -2.39625 q 0.6515,0.54664 1.4153,0.82371 0.7639,0.26958 1.5426,0.26958 0.4568,0 0.7938,-0.0824 0.3444,-0.0824 0.5691,-0.22465 0.2321,-0.14977 0.3444,-0.34446 0.1124,-0.20219 0.1124,-0.43432 0,-0.31451 -0.1797,-0.56163 -0.1798,-0.24711 -0.4943,-0.45678 -0.307,-0.20967 -0.7339,-0.40437 -0.4268,-0.19469 -0.921,-0.39687 -1.258,-0.52418 -1.8796,-1.2805 -0.614,-0.75632 -0.614,-1.82714 0,-0.83868 0.337,-1.43775 0.3369,-0.60655 0.9136,-0.99594 0.5841,-0.38939 1.3478,-0.56911 0.7639,-0.18721 1.6175,-0.18721 0.8387,0 1.4827,0.10484 0.6515,0.0974 1.1981,0.30702 v 2.239 q -0.2695,-0.18721 -0.5915,-0.32949 -0.3146,-0.14228 -0.6515,-0.23213 -0.337,-0.0974 -0.674,-0.14228 -0.3295,-0.045 -0.629,-0.045 -0.4119,0 -0.7488,0.0824 -0.337,0.0749 -0.5691,0.21716 -0.2322,0.14228 -0.3595,0.34446 -0.1273,0.19469 -0.1273,0.44181 0,0.26958 0.1423,0.48673 0.1423,0.20968 0.4044,0.40437 0.2621,0.18721 0.6365,0.37442 0.3744,0.17972 0.8462,0.37441 0.644,0.26958 1.1531,0.5766 0.5167,0.29953 0.8836,0.68143 0.367,0.3819 0.5617,0.87613 0.1947,0.48674 0.1947,1.13822 0,0.89859 -0.3445,1.51263 -0.3369,0.60655 -0.921,0.98845 -0.5841,0.37442 -1.3629,0.53916 -0.7713,0.16474 -1.6324,0.16474 -0.8836,0 -1.6849,-0.14977 -0.7937,-0.14976 -1.3779,-0.44929 z m 18.3838,0.41186 h -2.4263 v -4.37316 h -4.4479 v 4.37316 h -2.4188 v -10.7382 h 2.4188 v 4.2833 h 4.4479 v -4.2833 h 2.4263 z"
             id="text23"
             aria-label="DSH" />
        </g>
      </g>
      <g
         id="g29"
         transform="matrix(0.43016346,0,0,0.43016346,1950.2312,-19.259785)">
        <circle
           style="font-variation-settings:'wght' 400;opacity:1;vector-effect:none;fill:#ffffff;fill-opacity:1;stroke:none;stroke-width:6;stroke-linecap:round;stroke-linejoin:miter;stroke-miterlimit:4;stroke-dasharray:none;stroke-dashoffset:0;stroke-opacity:1;-inkscape-stroke:none;stop-color:#000000;stop-opacity:1"
           id="path23"
           cx="4298.791"
           cy="176.74472"
           r="41.939426" />
        <rect
           style="font-variation-settings:'wght' 400;opacity:1;vector-effect:none;fill:#ffffff;fill-opacity:1;stroke:none;stroke-width:4.53985;stroke-linecap:round;stroke-linejoin:miter;stroke-miterlimit:4;stroke-dasharray:none;stroke-dashoffset:0;stroke-opacity:1;-inkscape-stroke:none"
           id="rect23"
           width="26.960938"
           height="108.34264"
           x="4286.8086"
           y="122.92905"
           ry="5.1009331" />
        <use
           x="0"
           y="0"
           xlink:href="#rect23"
           id="use26"
           transform="rotate(45,4300.2891,175.24689)" />
        <use
           x="0"
           y="0"
           xlink:href="#rect23"
           id="use27"
           transform="rotate(90,4300.2891,175.2469)" />
        <use
           x="0"
           y="0"
           xlink:href="#rect23"
           id="use28"
           transform="rotate(135,4300.2891,175.24691)" />
        <circle
           style="font-variation-settings:'wght' 400;opacity:1;vector-effect:none;fill:#550000;fill-opacity:1;stroke:none;stroke-width:3.32143;stroke-linecap:round;stroke-linejoin:miter;stroke-miterlimit:4;stroke-dasharray:none;stroke-dashoffset:0;stroke-opacity:1;-inkscape-stroke:none;stop-color:#000000;stop-opacity:1"
           id="circle28"
           cx="4298.791"
           cy="176.74472"
           r="23.216469" />
        <circle
           style="font-variation-settings:'wght' 400;opacity:1;vector-effect:none;fill:#ffffff;fill-opacity:1;stroke:none;stroke-width:1.60714;stroke-linecap:round;stroke-linejoin:miter;stroke-miterlimit:4;stroke-dasharray:none;stroke-dashoffset:0;stroke-opacity:1;-inkscape-stroke:none;stop-color:#000000;stop-opacity:1"
           id="circle29"
           cx="4298.791"
           cy="176.74472"
           r="11.233776" />
      </g>
      <g
         id="g32"
         style="font-variation-settings:'wght' 400;opacity:1;vector-effect:none;fill:none;fill-opacity:1;stroke:#ffffff;stroke-width:10.5344;stroke-linecap:round;stroke-linejoin:miter;stroke-miterlimit:4;stroke-dasharray:none;stroke-dashoffset:0;stroke-opacity:1;-inkscape-stroke:none;stop-color:#000000;stop-opacity:1"
         transform="matrix(0.34250358,0,0,0.32361533,3441.5583,323.13872)">
        <g
           id="g34"
           transform="translate(0,19.307847)">
          <rect
             style="font-variation-settings:'wght' 400;vector-effect:none;fill:none;fill-opacity:1;stroke:#ffffff;stroke-width:10.5344;stroke-linecap:round;stroke-linejoin:miter;stroke-miterlimit:4;stroke-dasharray:none;stroke-dashoffset:0;stroke-opacity:1;-inkscape-stroke:none;stop-color:#000000;stop-opacity:1"
             id="rect31"
             width="486.09436"
             height="205.23761"
             x="189.46265"
             y="679.25189"
             ry="102.6188" />
          <path
             id="path31"
             style="font-variation-settings:'wght' 400;opacity:1;vector-effect:none;fill:none;fill-opacity:1;stroke:#ffffff;stroke-width:10.5344;stroke-linecap:round;stroke-linejoin:miter;stroke-miterlimit:4;stroke-dasharray:none;stroke-dashoffset:0;stroke-opacity:1;-inkscape-stroke:none;stop-color:#000000;stop-opacity:1"
             d="m 320.2068,742.82721 -27.00661,38.43582 27.00661,38.43583 m 224.60611,1.21593 27.0066,-38.43582 -27.0066,-38.43728"
             sodipodi:nodetypes="cccccc" />
        </g>
      </g>
    </g>
  </g>
</svg>
